<?xml version="1.0" encoding="UTF-8"?>
<svg id="metrics-icon" xmlns="http://www.w3.org/2000/svg" viewBox="0 0 512 512">
    <path d="M488 492h-22V174c0-15-12-27-26-27h-49c-15 0-27 12-27 27v318h-56V318c0-15-12-27-27-27h-49c-15 0-27 12-27 27v174h-55v-90c0-15-13-27-27-27H74c-15 0-27 12-27 27v90H24a10 10 0 1 0 0 20h464a10 10 0 1 0 0-20zm-358 0H67v-90c0-4 3-7 7-7h49c3 0 7 3 7 7v90zm158 0h-63V318c0-4 3-7 7-7h49c4 0 7 3 7 7v174zm158 0h-62V174c0-4 3-7 7-7h49c3 0 6 3 6 7v318zm20-481a10 10 0 0 0-10-11h-61a10 10 0 1 0 0 20h37l-99 99-37-37a10 10 0 0 0-14 0L102 261a10 10 0 0 0 14 14l173-172 37 37c4 4 11 4 15 0L446 34v34a10 10 0 1 0 20 0V11z"/>
    <circle cx="76" cy="303" r="10"/>
</svg>
