<?xml version="1.0" encoding="UTF-8"?>
<svg id="binoculars-icon" xmlns="http://www.w3.org/2000/svg" viewBox="0 0 512 512">
    <path d="M102 300c-25 0-47 15-56 38a11 11 0 0 0 20 8c6-15 20-25 36-25a11 11 0 0 0 0-21zm154-50a40 40 0 1 0 0 80 40 40 0 0 0 0-80zm0 59a19 19 0 1 1 0-37 19 19 0 0 1 0 37z"/>
    <path d="M504 319l-44-145c-6-20-13-45-30-62a61 61 0 1 0-118 22 999 999 0 0 0-12 14 71 71 0 0 0-88 0 1336 1336 0 0 1-12-14 61 61 0 0 0-57-83c-34 0-61 28-61 61-17 17-24 42-30 62L8 319a102 102 0 1 0 196 45 97 97 0 0 0 104 0 102 102 0 1 0 196-45zM369 73c17 0 31 10 37 25-7-2-14-4-23-4-21 0-38 10-53 23a39 39 0 0 1 39-44zm-226 0a40 40 0 0 1 39 44 80 80 0 0 0-53-23c-9 0-16 2-23 4 6-15 20-25 37-25zm-41 366a81 81 0 1 1 0-161 81 81 0 0 1 0 161zm154-81c-21 0-41-8-55-24a102 102 0 0 0-158-59l29-95c11-38 22-64 57-64 25 0 44 20 62 40l10 10-7 45a11 11 0 0 0 21 3l7-46a50 50 0 0 1 68 0l3 21a11 11 0 0 0 21-3l-3-20 10-10c18-20 37-40 62-40 35 0 46 26 57 64l29 95c-17-11-37-18-59-18-48 0-88 33-99 77a76 76 0 0 1-55 24zm154 81a81 81 0 1 1 0-161 81 81 0 0 1 0 161z"/>
    <path d="M65 368a11 11 0 0 0-20 6 11 11 0 1 0 20-6zm345-68c-25 0-47 15-55 38a11 11 0 0 0 20 8c5-15 19-25 35-25a11 11 0 0 0 0-21zm-36 68a11 11 0 0 0-21 6 11 11 0 1 0 21-6z"/>
</svg>