<?xml version="1.0" encoding="UTF-8"?>
<svg xmlns="http://www.w3.org/2000/svg" viewBox="0 0 512 512">
    <path d="M363 182v-11c0-21-16-39-36-42-7-18-20-27-29-35-4-2-10-7-10-9 0-6 2-10 4-14 3-6 6-13 7-25 1-21-12-40-32-45a43 43 0 0 0-54 42c0 13 4 21 7 27 2 5 4 9 4 15 0 2-6 7-10 9-9 8-22 17-29 35-20 3-36 21-36 42v11a53 53 0 0 0-21 42v235c0 29 24 53 53 53h150c29 0 53-24 53-53V224c0-17-8-33-21-42zm-136-71c9-6 18-13 18-26 0-11-3-18-6-24-2-5-4-10-4-18a21 21 0 0 1 27-21c9 3 16 12 15 23 0 8-2 11-4 16-3 6-6 13-6 24 0 13 9 20 18 26 6 5 12 10 17 17h-92c5-7 11-12 17-17zm-56 60c0-12 9-22 21-22h128c12 0 21 10 21 22v1l-10-1H181l-10 1v-1zm192 288c0 17-15 32-32 32H181c-17 0-32-15-32-32v-11h54a11 11 0 0 0 0-21h-54v-43h32a11 11 0 0 0 0-21h-32v-43h54a11 11 0 0 0 0-21h-54v-43h32a11 11 0 0 0 0-21h-32v-11c0-18 15-32 32-32h150c17 0 32 14 32 32v235z"/>
</svg>