<?xml version="1.0" encoding="UTF-8"?>
<svg id="swipe-icon" xmlns="http://www.w3.org/2000/svg" viewBox="0 0 397 397">
    <path d="M287 222a32 32 0 0 0-34-26l49-50c13-13 13-33 0-45a32 32 0 0 0-45 0L150 208v-16a64 64 0 0 0-53-62c-6 0-11 5-11 11v155a104 104 0 0 0 177 71l37-37c8-9 11-20 8-31l-21-77zm1 96l-37 38a88 88 0 0 1-149-60V147a48 48 0 0 1 32 45v30c0 3 1 5 4 6 6 3 13 2 17-3l113-113a16 16 0 0 1 23 23l-66 65a8 8 0 0 0 7 14l22-2c3-1 9-1 13 4 3 3 4 6 5 9l20 78c2 6 0 11-4 15zM181 0l-11 11 29 29h-81v16h81l-29 29 11 11 49-48z"/>
</svg>
