<?xml version="1.0" standalone="no"?>
<!DOCTYPE svg PUBLIC "-//W3C//DTD SVG 20010904//EN"
 "http://www.w3.org/TR/2001/REC-SVG-20010904/DTD/svg10.dtd">
<svg version="1.0" xmlns="http://www.w3.org/2000/svg"
 width="512.000000pt" height="512.000000pt" viewBox="0 0 512.000000 512.000000"
 preserveAspectRatio="xMidYMid meet">
<metadata>
Created by potrace 1.11, written by Peter Selinger 2001-2013
</metadata>
<g transform="translate(0.000000,512.000000) scale(0.100000,-0.100000)"
fill="#000000" stroke="none">
<path d="M2455 5113 c-61 -17 -148 -68 -196 -115 -140 -139 -166 -339 -70
-555 45 -104 59 -170 39 -194 -7 -9 -33 -31 -58 -48 -128 -91 -275 -254 -309
-343 -7 -18 -22 -28 -58 -38 -92 -26 -196 -103 -248 -185 -38 -60 -62 -152
-64 -242 l-2 -87 -61 -65 c-66 -71 -121 -173 -137 -256 -6 -31 -10 -532 -10
-1285 -1 -1187 0 -1238 18 -1302 56 -195 210 -343 398 -383 56 -12 208 -15
873 -15 887 1 862 -1 985 63 65 34 182 143 206 192 9 17 20 39 26 50 54 101
53 73 50 1425 l-2 1265 -26 68 c-32 82 -68 136 -131 196 l-48 46 0 75 c0 41
-5 95 -11 119 -34 149 -158 281 -301 320 -44 12 -49 17 -80 80 -24 48 -60 93
-131 163 -53 54 -114 109 -135 122 -20 13 -50 36 -65 50 -26 22 -28 30 -23 66
3 23 21 76 40 118 82 182 86 334 13 481 -33 67 -119 148 -195 184 -57 27 -78
31 -166 33 -56 2 -110 0 -121 -3z m184 -224 c130 -58 166 -202 94 -367 -106
-242 -82 -367 98 -499 30 -23 86 -72 124 -110 l68 -68 -232 -3 c-127 -1 -335
-1 -462 0 l-231 3 64 65 c35 36 97 91 138 122 83 62 114 99 136 160 28 81 16
170 -46 322 -59 147 -51 256 25 332 63 63 146 79 224 43z m632 -1273 c19 -8
47 -24 63 -37 32 -25 76 -111 76 -149 l0 -25 -850 0 c-693 0 -850 2 -850 13 0
7 5 34 12 60 14 55 79 126 130 141 19 5 311 10 709 10 561 1 682 -1 710 -13z
m135 -432 c61 -21 131 -73 166 -125 62 -92 59 -16 56 -1370 l-3 -1234 -28 -57
c-34 -70 -110 -140 -180 -167 -50 -19 -79 -20 -854 -20 -787 -1 -803 -1 -857
19 -73 28 -148 97 -183 167 -22 47 -28 74 -31 150 l-4 93 276 0 276 0 30 28
c36 33 46 81 25 122 -31 59 -34 60 -332 60 l-273 0 0 215 0 215 160 0 c98 0
169 4 184 11 26 12 56 75 54 113 -1 10 -16 33 -33 52 l-32 34 -167 0 -166 0 0
215 0 215 270 0 c181 0 277 4 294 11 27 13 58 80 53 112 -2 11 -16 34 -31 53
l-27 34 -279 0 -280 0 0 215 0 215 166 0 167 0 32 34 c36 38 41 74 19 118 -28
54 -44 58 -222 58 l-165 0 5 98 c6 131 43 204 138 274 79 58 54 56 926 57 713
1 807 -1 850 -15z"/>
</g>
</svg>
